<svg width="991" height="991" viewBox="0 0 991 991" fill="none" xmlns="http://www.w3.org/2000/svg">
<g filter="url(#filter0_d)">
<circle cx="495.5" cy="495.5" r="453.5" fill="#FEFEFE" fill-opacity="0.45"/>
</g>
<g filter="url(#filter1_d)">
<circle cx="494.5" cy="502.5" r="382.5" fill="#FEFEFE" fill-opacity="0.45"/>
</g>
<g filter="url(#filter2_d)">
<circle cx="499" cy="503" r="307" fill="#FEFEFE" fill-opacity="0.54"/>
</g>
<g filter="url(#filter3_d)">
<circle cx="499.5" cy="506.5" r="218.5" fill="white" fill-opacity="0.54"/>
</g>
<path d="M557.338 431.57V431.571L517.75 468.958L574 515.833V415.833L557.338 431.57Z" fill="#13BC8C"/>
<path d="M424 415.833V515.833L480.25 468.958L424 415.833Z" fill="#40E4B6"/>
<path d="M480.25 468.958L424 515.833H499V486.667L480.25 468.958Z" fill="#29CFA0"/>
<path d="M499 486.667V515.833H574L517.75 468.958L499 486.667Z" fill="#28C498"/>
<path d="M440.664 400.095L424 415.833H440.662L440.664 400.095Z" fill="#0AD69C"/>
<path d="M574 415.833L557.335 400.094L557.336 415.833H574Z" fill="#0AD69C"/>
<path d="M499 345L472.422 370.101L525.511 370.038L499 345Z" fill="#0AD69C"/>
<path d="M557.337 431.57L574 415.833H557.337L557.337 431.57Z" fill="#0C926C"/>
<path d="M499 486.667L440.661 431.569L440.662 415.833H424L480.25 468.958L499 486.667Z" fill="#0C926C"/>
<path d="M440.661 431.569L499 486.667L517.75 468.958L557.337 431.571L557.337 415.833L557.335 400.095L557.333 370L525.511 370.038L472.422 370.101L440.667 370.139L440.664 400.095L440.662 415.833L440.661 431.569ZM461.5 420H536.5V432.5H461.5V420ZM461.5 407.5V395H536.5V407.5H461.5Z" fill="#F2F0E3"/>
<rect x="451.5" y="383.333" width="89.1667" height="53.3333" fill="#F2F0E3"/>
<path d="M506.011 393.793H492.132C490.853 393.793 489.819 392.759 489.819 391.48C489.819 390.201 490.853 389.167 492.132 389.167H506.011C507.291 389.167 508.325 390.201 508.325 391.48C508.325 392.759 507.291 393.793 506.011 393.793Z" fill="#ABABAB"/>
<path d="M526.831 430.804H512.951C511.672 430.804 510.638 429.77 510.638 428.491C510.638 427.212 511.672 426.178 512.951 426.178H526.831C528.11 426.178 529.144 427.212 529.144 428.491C529.144 429.77 528.11 430.804 526.831 430.804Z" fill="#ABABAB"/>
<path d="M482.879 412.299H471.313C470.034 412.299 469 411.265 469 409.985C469 408.706 470.034 407.672 471.313 407.672H482.879C484.159 407.672 485.193 408.706 485.193 409.985C485.193 411.265 484.159 412.299 482.879 412.299Z" fill="#ABABAB"/>
<path d="M517.506 414.626H501.313C500.034 414.626 499 413.592 499 412.313C499 411.034 500.034 410 501.313 410H517.506C518.785 410 519.819 411.034 519.819 412.313C519.819 413.592 518.785 414.626 517.506 414.626Z" fill="#ABABAB"/>
<path d="M492.132 412.299C491.531 412.299 490.927 412.045 490.49 411.629C490.071 411.189 489.819 410.588 489.819 409.986C489.819 409.385 490.071 408.781 490.49 408.344C491.346 407.488 492.919 407.488 493.774 408.344C494.191 408.781 494.445 409.385 494.445 409.986C494.445 410.588 494.191 411.189 493.774 411.629C493.335 412.045 492.734 412.299 492.132 412.299Z" fill="#ABABAB"/>
<path d="M503.698 430.804H480.566C479.287 430.804 478.253 429.77 478.253 428.491C478.253 427.212 479.287 426.178 480.566 426.178H503.698C504.978 426.178 506.012 427.212 506.012 428.491C506.012 429.77 504.978 430.804 503.698 430.804Z" fill="#ABABAB"/>
<path d="M471.313 430.805C470.712 430.805 470.108 430.55 469.671 430.134C469.252 429.694 469 429.093 469 428.492C469 427.89 469.252 427.286 469.671 426.849C470.527 425.993 472.077 425.993 472.956 426.849C473.372 427.286 473.626 427.89 473.626 428.492C473.626 429.093 473.372 429.694 472.956 430.134C472.516 430.571 471.915 430.805 471.313 430.805Z" fill="#ABABAB"/>
<path d="M526.83 412.299C526.229 412.299 525.625 412.045 525.188 411.629C524.769 411.189 524.517 410.588 524.517 409.986C524.517 409.359 524.769 408.781 525.188 408.344C526.044 407.488 527.617 407.488 528.473 408.344C528.889 408.781 529.144 409.359 529.144 409.986C529.144 410.611 528.889 411.189 528.473 411.629C528.033 412.045 527.432 412.299 526.83 412.299Z" fill="#ABABAB"/>
<path d="M482.879 449.31H471.313C470.034 449.31 469 448.276 469 446.997C469 445.718 470.034 444.684 471.313 444.684H482.879C484.159 444.684 485.193 445.718 485.193 446.997C485.193 448.276 484.159 449.31 482.879 449.31Z" fill="#ABABAB"/>
<path d="M517.578 449.31H501.385C500.106 449.31 499.072 448.276 499.072 446.997C499.072 445.718 500.106 444.684 501.385 444.684H517.578C518.857 444.684 519.891 445.718 519.891 446.997C519.891 448.276 518.857 449.31 517.578 449.31Z" fill="#ABABAB"/>
<path d="M492.132 449.311C491.505 449.311 490.927 449.056 490.49 448.64C490.071 448.2 489.819 447.599 489.819 446.997C489.819 446.371 490.071 445.792 490.49 445.355C491.346 444.499 492.895 444.499 493.774 445.355C494.191 445.792 494.445 446.396 494.445 446.997C494.445 447.599 494.191 448.2 493.774 448.64C493.335 449.056 492.734 449.311 492.132 449.311Z" fill="#ABABAB"/>
<path d="M526.83 449.311C526.229 449.311 525.625 449.056 525.188 448.64C524.769 448.2 524.517 447.599 524.517 446.997C524.517 446.396 524.769 445.792 525.188 445.355C526.044 444.499 527.617 444.499 528.473 445.355C528.889 445.792 529.144 446.396 529.144 446.997C529.144 447.599 528.889 448.2 528.473 448.64C528.033 449.056 527.455 449.311 526.83 449.311Z" fill="#ABABAB"/>
<defs>
<filter id="filter0_d" x="0" y="0" width="991" height="991" filterUnits="userSpaceOnUse" color-interpolation-filters="sRGB">
<feFlood flood-opacity="0" result="BackgroundImageFix"/>
<feColorMatrix in="SourceAlpha" type="matrix" values="0 0 0 0 0 0 0 0 0 0 0 0 0 0 0 0 0 0 127 0"/>
<feOffset/>
<feGaussianBlur stdDeviation="21"/>
<feColorMatrix type="matrix" values="0 0 0 0 0.906114 0 0 0 0 0.906114 0 0 0 0 0.906114 0 0 0 0.13 0"/>
<feBlend mode="normal" in2="BackgroundImageFix" result="effect1_dropShadow"/>
<feBlend mode="normal" in="SourceGraphic" in2="effect1_dropShadow" result="shape"/>
</filter>
<filter id="filter1_d" x="70" y="78" width="849" height="849" filterUnits="userSpaceOnUse" color-interpolation-filters="sRGB">
<feFlood flood-opacity="0" result="BackgroundImageFix"/>
<feColorMatrix in="SourceAlpha" type="matrix" values="0 0 0 0 0 0 0 0 0 0 0 0 0 0 0 0 0 0 127 0"/>
<feOffset/>
<feGaussianBlur stdDeviation="21"/>
<feColorMatrix type="matrix" values="0 0 0 0 0.906114 0 0 0 0 0.906114 0 0 0 0 0.906114 0 0 0 0.36 0"/>
<feBlend mode="normal" in2="BackgroundImageFix" result="effect1_dropShadow"/>
<feBlend mode="normal" in="SourceGraphic" in2="effect1_dropShadow" result="shape"/>
</filter>
<filter id="filter2_d" x="150" y="154" width="698" height="698" filterUnits="userSpaceOnUse" color-interpolation-filters="sRGB">
<feFlood flood-opacity="0" result="BackgroundImageFix"/>
<feColorMatrix in="SourceAlpha" type="matrix" values="0 0 0 0 0 0 0 0 0 0 0 0 0 0 0 0 0 0 127 0"/>
<feOffset/>
<feGaussianBlur stdDeviation="21"/>
<feColorMatrix type="matrix" values="0 0 0 0 0.906114 0 0 0 0 0.906114 0 0 0 0 0.906114 0 0 0 0.11 0"/>
<feBlend mode="normal" in2="BackgroundImageFix" result="effect1_dropShadow"/>
<feBlend mode="normal" in="SourceGraphic" in2="effect1_dropShadow" result="shape"/>
</filter>
<filter id="filter3_d" x="239" y="246" width="521" height="521" filterUnits="userSpaceOnUse" color-interpolation-filters="sRGB">
<feFlood flood-opacity="0" result="BackgroundImageFix"/>
<feColorMatrix in="SourceAlpha" type="matrix" values="0 0 0 0 0 0 0 0 0 0 0 0 0 0 0 0 0 0 127 0"/>
<feOffset/>
<feGaussianBlur stdDeviation="21"/>
<feColorMatrix type="matrix" values="0 0 0 0 0.906114 0 0 0 0 0.906114 0 0 0 0 0.906114 0 0 0 0.43 0"/>
<feBlend mode="normal" in2="BackgroundImageFix" result="effect1_dropShadow"/>
<feBlend mode="normal" in="SourceGraphic" in2="effect1_dropShadow" result="shape"/>
</filter>
</defs>
</svg>
